<svg width="34" height="35" viewBox="0 0 34 35" fill="none" xmlns="http://www.w3.org/2000/svg">
<path fill-rule="evenodd" clip-rule="evenodd" d="M17.0026 4.30501C14.6706 4.30459 12.3792 4.91583 10.3571 6.07773C8.33514 7.23963 6.65323 8.91155 5.47932 10.9266C4.3054 12.9417 3.68052 15.2294 3.66707 17.5614C3.65361 19.8934 4.25204 22.1882 5.40262 24.2167C6.18031 23.206 7.18001 22.3877 8.32443 21.825C9.46886 21.2623 10.7274 20.9703 12.0026 20.9717H22.0026C23.2779 20.9703 24.5364 21.2623 25.6808 21.825C26.8252 22.3877 27.8249 23.206 28.6026 24.2167C29.7532 22.1882 30.3516 19.8934 30.3382 17.5614C30.3247 15.2294 29.6998 12.9417 28.5259 10.9266C27.352 8.91155 25.6701 7.23963 23.6481 6.07773C21.6261 4.91583 19.3347 4.30459 17.0026 4.30501ZM30.241 27.765C32.4693 24.86 33.6747 21.2996 33.6693 17.6383C33.6693 8.43335 26.2076 0.97168 17.0026 0.97168C7.79762 0.97168 0.335956 8.43335 0.335956 17.6383C0.330454 21.2997 1.5358 24.86 3.76429 27.765L3.75596 27.795L4.34762 28.4833C5.91076 30.3109 7.8516 31.7777 10.0363 32.7827C12.2211 33.7878 14.5978 34.3071 17.0026 34.305C20.3815 34.3112 23.6816 33.2849 26.461 31.3633C27.6458 30.5447 28.7202 29.5767 29.6576 28.4833L30.2493 27.795L30.241 27.765ZM17.0026 7.63835C15.6765 7.63835 14.4048 8.16513 13.4671 9.10281C12.5294 10.0405 12.0026 11.3123 12.0026 12.6383C12.0026 13.9644 12.5294 15.2362 13.4671 16.1739C14.4048 17.1116 15.6765 17.6383 17.0026 17.6383C18.3287 17.6383 19.6005 17.1116 20.5382 16.1739C21.4758 15.2362 22.0026 13.9644 22.0026 12.6383C22.0026 11.3123 21.4758 10.0405 20.5382 9.10281C19.6005 8.16513 18.3287 7.63835 17.0026 7.63835Z" fill="#434343"/>
</svg>
