<svg width="50" height="42" viewBox="0 0 50 42" fill="none" xmlns="http://www.w3.org/2000/svg">
<path d="M41.8102 8.20898H40.7383V36.38H41.8102V8.20898Z" fill="#AAA9BA"/>
<path d="M4.04848 8.20898H2.97656V36.38H4.04848V8.20898Z" fill="#AAA9BA"/>
<path d="M40.7367 18.0845H4.04688V36.3798H40.7367V18.0845Z" fill="#DCE6F5"/>
<path d="M41.8103 36.3794H2.97656V38.8551H41.8103V36.3794Z" fill="#2E2732"/>
<path d="M40.7367 8.20898H4.04688V11.3997H40.7367V8.20898Z" fill="#DCE6F5"/>
<path d="M43.1193 8.20861H1.67163C1.60301 8.20861 1.54688 8.15018 1.54688 8.07873V0.129875C1.54688 0.0584306 1.60301 0 1.67163 0H43.1193C43.1879 0 43.244 0.0584306 43.244 0.129875V8.07869C43.244 8.15014 43.1879 8.20861 43.1193 8.20861Z" fill="#2E2732"/>
<path d="M36.7835 19.7695H27.4297V38.8554H36.7835V19.7695Z" fill="white"/>
<path d="M36.1148 20.4189H28.0391V38.8551H36.1148V20.4189Z" fill="#DCE6F5"/>
<path d="M50 40.3868V41.3454H0V40.3868C0 39.5446 0.661916 38.8555 1.47084 38.8555H48.529C49.3381 38.8554 50 39.5445 50 40.3868Z" fill="#575153"/>
<path d="M41.8102 8.20898H2.97656V9.33992H41.8102V8.20898Z" fill="#AAA9BA"/>
<path d="M12.2285 11.3262H16.2895L15.2773 17.006H10.4141L12.2285 11.3262Z" fill="#BD2435"/>
<path d="M16.2896 11.3262H20.3505L20.1406 17.006H15.2773L16.2896 11.3262Z" fill="white"/>
<path d="M24.4587 11.3262L24.9957 17.006H20.1445L20.3545 11.3262H24.4587Z" fill="#BD2435"/>
<path d="M28.3806 11.3262L29.8495 17.006H24.9862L24.4492 11.3262H28.3806Z" fill="white"/>
<path d="M32.4909 11.3262L34.7188 17.006H29.8556L28.3867 11.3262H32.4909Z" fill="#BD2435"/>
<path d="M12.2251 11.3262L11.8756 12.4191L10.4091 17.0059H5.54688L7.04374 13.7574L7.66045 12.4191L8.1641 11.3262H12.2251Z" fill="white"/>
<path d="M39.5839 17.0059H34.7191L32.9207 12.4191L32.4922 11.3262H36.5964L37.1713 12.4191L39.5839 17.0059Z" fill="white"/>
<path d="M8.16958 11.3262L7.66571 12.4191L7.04872 13.7574L5.55185 17.0044L5.55076 17.0069H0.6875L4.10858 11.3262H8.16958Z" fill="#BD2435"/>
<path d="M44.4449 17.0059H39.5816L39.5806 17.004L37.1778 12.4365L37.1686 12.4191L36.5938 11.3262H40.6979L44.4449 17.0059Z" fill="#BD2435"/>
<path opacity="0.32" d="M5.55871 17.007V16.7233H2.97656V16.7232H5.55871L7.05666 13.6748L5.5598 16.7224V17.0046L5.55871 17.007Z" fill="#57886B"/>
<path opacity="0.32" d="M39.5962 17.0044V16.7226L37.1933 12.4369L37.1836 12.4194H37.1842L39.5972 16.7226V17.0063L39.5962 17.0044Z" fill="#57886B"/>
<path d="M39.5325 24.0078H37.6327C37.5468 24.0078 37.4766 23.9347 37.4766 23.8453V23.1527C37.4766 23.0634 37.5468 22.9902 37.6327 22.9902H39.5325C39.6184 22.9902 39.6886 23.0633 39.6886 23.1527V23.8453C39.6886 23.9347 39.6184 24.0078 39.5325 24.0078Z" fill="white"/>
<path d="M40.2864 25.8179H38.3866C38.3007 25.8179 38.2305 25.7448 38.2305 25.6554V24.9628C38.2305 24.8734 38.3007 24.8003 38.3866 24.8003H40.2864C40.3723 24.8003 40.4425 24.8734 40.4425 24.9628V25.6554C40.4425 25.7448 40.3723 25.8179 40.2864 25.8179Z" fill="white"/>
<path d="M39.5325 30.9775H37.6327C37.5468 30.9775 37.4766 30.9044 37.4766 30.815V30.1225C37.4766 30.0331 37.5468 29.96 37.6327 29.96H39.5325C39.6184 29.96 39.6886 30.0331 39.6886 30.1225V30.815C39.6886 30.9044 39.6184 30.9775 39.5325 30.9775Z" fill="white"/>
<path d="M40.2864 33.8594H38.3866C38.3007 33.8594 38.2305 33.7863 38.2305 33.6969V33.0043C38.2305 32.9149 38.3007 32.8418 38.3866 32.8418H40.2864C40.3723 32.8418 40.4425 32.9149 40.4425 33.0043V33.6969C40.4425 33.7863 40.3723 33.8594 40.2864 33.8594Z" fill="white"/>
<path d="M40.7066 10.9751H4.04688V11.3261H40.7066V10.9751Z" fill="#AAA9BA"/>
<path d="M14.6742 3.19489C14.6742 2.85661 14.7905 2.59689 15.0229 2.41572C15.2553 2.23465 15.604 2.14404 16.0688 2.14404C16.5337 2.14404 16.8823 2.23461 17.1147 2.41572C17.3471 2.59689 17.4634 2.85661 17.4634 3.19489V3.32624H16.5681V3.1531C16.5681 3.00187 16.5264 2.89542 16.4433 2.83367C16.36 2.77199 16.2438 2.74114 16.0946 2.74114C15.9453 2.74114 15.8291 2.77199 15.746 2.83367C15.6627 2.89542 15.6212 3.00187 15.6212 3.1531C15.6212 3.2964 15.6671 3.42281 15.7589 3.53224C15.8507 3.64178 15.9655 3.74521 16.1033 3.84269C16.241 3.94027 16.3887 4.03774 16.5466 4.13526C16.7043 4.23284 16.8522 4.33929 16.9899 4.45468C17.1276 4.57019 17.2424 4.70153 17.3342 4.84872C17.426 4.99603 17.472 5.16917 17.472 5.36819C17.472 5.70655 17.3528 5.96627 17.1148 6.14733C16.8765 6.32851 16.5251 6.419 16.0602 6.419C15.5953 6.419 15.2438 6.32851 15.0057 6.14733C14.7675 5.96627 14.6484 5.70655 14.6484 5.36819V5.11145H15.5437V5.40998C15.5437 5.56129 15.5881 5.66672 15.6771 5.72643C15.766 5.78614 15.8851 5.81602 16.0344 5.81602C16.1835 5.81602 16.3026 5.78614 16.3916 5.72643C16.4805 5.66675 16.525 5.56132 16.525 5.40998C16.525 5.26668 16.479 5.14039 16.3873 5.03084C16.2955 4.92141 16.1807 4.81794 16.043 4.72039C15.9052 4.62292 15.7574 4.52541 15.5997 4.42786C15.4418 4.33035 15.2941 4.22394 15.1563 4.10844C15.0186 3.99304 14.9037 3.8617 14.812 3.7144C14.7201 3.56713 14.6742 3.39395 14.6742 3.19489Z" fill="white"/>
<path d="M17.7383 2.19189H20.6651V2.78895H19.6752V6.37126H18.7282V2.78895H17.7383V2.19189Z" fill="white"/>
<path d="M21.0039 3.19489C21.0039 2.85661 21.1272 2.59689 21.3741 2.41572C21.6208 2.23465 21.9767 2.14404 22.4415 2.14404C22.9064 2.14404 23.2621 2.23461 23.5089 2.41572C23.7557 2.59689 23.8791 2.85661 23.8791 3.19489V5.36815C23.8791 5.70651 23.7557 5.96623 23.5089 6.14729C23.2621 6.32847 22.9064 6.41896 22.4415 6.41896C21.9767 6.41896 21.6208 6.32847 21.3741 6.14729C21.1272 5.96623 21.0039 5.70651 21.0039 5.36815V3.19489ZM21.9508 5.40994C21.9508 5.56125 21.9952 5.6677 22.0843 5.72937C22.1732 5.79112 22.2922 5.82194 22.4415 5.82194C22.5907 5.82194 22.7097 5.79116 22.7988 5.72937C22.8876 5.6677 22.9322 5.56128 22.9322 5.40994V3.15306C22.9322 3.00183 22.8877 2.89538 22.7988 2.83363C22.7097 2.77196 22.5907 2.7411 22.4415 2.7411C22.2922 2.7411 22.1732 2.77196 22.0843 2.83363C21.9952 2.89538 21.9508 3.00183 21.9508 3.15306V5.40994Z" fill="white"/>
<path d="M26.4682 6.37126C26.4566 6.34346 26.4452 6.31755 26.4338 6.29363C26.4222 6.26976 26.4122 6.23992 26.4036 6.20408C26.395 6.16825 26.3893 6.12253 26.3864 6.06674C26.3834 6.01102 26.3821 5.94135 26.3821 5.8578V5.20102C26.3821 5.00604 26.3332 4.8687 26.2357 4.78907C26.1381 4.70951 25.9803 4.66968 25.7623 4.66968H25.4352V6.37126H24.4883V2.19189H25.9173C26.4108 2.19189 26.768 2.27156 26.989 2.43071C27.2099 2.58997 27.3204 2.83071 27.3204 3.15312V3.48152C27.3204 3.9114 27.1138 4.19408 26.7006 4.32935C26.9416 4.39706 27.1066 4.50755 27.1956 4.66074C27.2845 4.814 27.3291 5.00012 27.3291 5.21898V5.86379C27.3291 5.96734 27.3347 6.05784 27.3463 6.13547C27.3577 6.2131 27.3864 6.29175 27.4324 6.3713L26.4682 6.37126ZM25.4351 2.78895V4.07262H25.8053C25.9832 4.07262 26.1224 4.04082 26.2228 3.97711C26.3232 3.91347 26.3735 3.79797 26.3735 3.63082V3.21887C26.3735 3.06764 26.3347 2.95821 26.2573 2.8905C26.1798 2.82286 26.0578 2.78899 25.8914 2.78899L25.4351 2.78895Z" fill="white"/>
<path d="M28.8961 3.95319H30.196V4.55025H28.8961V5.77421H30.5317V6.37126H27.9492V2.19189H30.5317V2.78895H28.8961V3.95319Z" fill="white"/>
<path d="M25.6288 19.7695H5.84375V33.1051H25.6288V19.7695Z" fill="white"/>
<path d="M25.0209 20.437H6.41797V32.4908H25.0209V20.437Z" fill="#9ECCD5"/>
<path d="M25.021 20.4517H6.41797V21.153H25.021V20.4517Z" fill="#7AB6BB"/>
<path d="M44.4551 17.0068H0.695312V19.7692H44.4551V17.0068Z" fill="#A61D31"/>
<path d="M5.55859 17.0072V19.7696H10.4219V17.0063L5.55859 17.0072Z" fill="#DCE6F5"/>
<path d="M20.1484 17.0063H15.2852V19.7696H20.1484V17.0063Z" fill="#DCE6F5"/>
<path d="M29.8632 17.0063H25V19.7696H29.8632V17.0063Z" fill="#DCE6F5"/>
<path d="M34.7305 17.0056V19.7689H39.5953V17.0039L34.7305 17.0056Z" fill="#DCE6F5"/>
<path d="M35.3587 21.8135H28.793V36.0547H35.3587V21.8135Z" fill="#9ECCD5"/>
<path d="M35.3586 21.8135H28.793V22.5484H35.3586V21.8135Z" fill="#7AB6BB"/>
<path opacity="0.25" d="M35.3608 29.73V34.1557L33.7779 36.0551H30.0898L35.3608 29.73Z" fill="white"/>
<path opacity="0.25" d="M35.3586 23.5112V26.8306L28.793 34.7095V31.3902L35.3586 23.5112Z" fill="white"/>
<path opacity="0.25" d="M35.3586 21.8135V21.8332L28.793 29.7121V25.2864L31.687 21.8135H35.3586Z" fill="white"/>
<path d="M32.0799 24.3247H32.0798H32.0796C30.9837 24.3247 29.989 24.7409 29.2578 25.4176L29.8674 26.0426C30.4509 25.5314 31.2274 25.2197 32.0796 25.2197H32.0797H32.0798C32.932 25.2197 33.7086 25.5314 34.292 26.0426L34.9016 25.4176C34.1706 24.7409 33.1758 24.3247 32.0799 24.3247Z" fill="white"/>
<path d="M25.6288 33.8599H5.84375V35.7102H25.6288V33.8599Z" fill="white"/>
<path d="M25.021 34.4946H6.41797V35.1451H25.021V34.4946Z" fill="#DCE6F5"/>
<path opacity="0.25" d="M23.7722 20.437L13.7275 32.4908H7.73438L17.7791 20.437H23.7722Z" fill="white"/>
<path opacity="0.25" d="M25.0173 24.2856V27.6049L20.9456 32.4909H18.1797L25.0173 24.2856Z" fill="white"/>
<path opacity="0.25" d="M14.2441 20.437L6.41797 29.8284V25.4027L10.556 20.437H14.2441Z" fill="white"/>
<path d="M24.2605 26.147H22.5273V26.9683H24.2605V26.147Z" fill="#F9AA2A"/>
<path d="M23.9032 28.9905C24.1831 28.6991 24.1831 28.2267 23.9032 27.9353C23.6233 27.6439 23.1695 27.6439 22.8896 27.9353C22.6097 28.2267 22.6097 28.6991 22.8896 28.9905C23.1695 29.2819 23.6233 29.2819 23.9032 28.9905Z" fill="#E75637"/>
<path d="M24.2653 30.0552H22.3984V31.0727H24.2653V30.0552Z" fill="white"/>
<path d="M24.0253 30.3667H22.6367V30.7621H24.0253V30.3667Z" fill="#2F2633"/>
<path d="M33.8845 28.0508H30.3906V29.4847H33.8845V28.0508Z" fill="white"/>
<path d="M48.0001 38.4179H43.3818V22.1804C43.3818 22.1177 43.3325 22.0664 43.2724 22.0664H43.0157C42.9555 22.0664 42.9062 22.1177 42.9062 22.1804V38.8695H48.0001C48.0603 38.8695 48.1096 38.8183 48.1096 38.7556V38.5318C48.1096 38.4691 48.0603 38.4179 48.0001 38.4179Z" fill="#2E2732"/>
<path d="M48.3711 22.8989H42.9062V34.4944H48.3711V22.8989Z" fill="#DCE6F5"/>
<path d="M48.3721 22.8989H43.3828V25.9872H48.3721V22.8989Z" fill="#BD2435"/>
<path d="M43.3818 22.9072H42.9062V25.987H43.3818V22.9072Z" fill="#BD2435"/>
<path d="M43.6324 22.9014H43.3828V25.9867H43.6324V22.9014Z" fill="#A61D31"/>
<path d="M48.3711 34.209H42.9062V35.7443H48.3711V34.209Z" fill="#BD2435"/>
<path d="M43.6324 34.2075H43.3828V35.7436H43.6324V34.2075Z" fill="#A61D31"/>
<path d="M43.6325 34.2075H43.3828L43.3854 25.9868H43.6325V34.2075Z" fill="#C6D6E7"/>
<path d="M46.2805 27.1214H44.0855C44.0191 27.1214 43.9648 27.0649 43.9648 26.9959V26.8175C43.9648 26.7484 44.0191 26.6919 44.0855 26.6919H46.2805C46.3468 26.6919 46.4011 26.7484 46.4011 26.8175V26.9959C46.4011 27.0649 46.3468 27.1214 46.2805 27.1214Z" fill="#C6D6E7"/>
<path d="M47.636 28.2562H44.0855C44.0191 28.2562 43.9648 28.1997 43.9648 28.1306V27.9522C43.9648 27.8832 44.0191 27.8267 44.0855 27.8267H47.636C47.7024 27.8267 47.7567 27.8832 47.7567 27.9522V28.1306C47.7567 28.1997 47.7024 28.2562 47.636 28.2562Z" fill="#C6D6E7"/>
<path d="M47.636 31.786H44.0855C44.0191 31.786 43.9648 31.7295 43.9648 31.6604V31.482C43.9648 31.413 44.0191 31.3564 44.0855 31.3564H47.636C47.7024 31.3564 47.7567 31.413 47.7567 31.482V31.6604C47.7567 31.7295 47.7024 31.786 47.636 31.786Z" fill="#C6D6E7"/>
<path d="M47.636 32.9422H44.0855C44.0191 32.9422 43.9648 32.8857 43.9648 32.8167V32.6383C43.9648 32.5692 44.0191 32.5127 44.0855 32.5127H47.636C47.7024 32.5127 47.7567 32.5692 47.7567 32.6383V32.8167C47.7567 32.8857 47.7024 32.9422 47.636 32.9422Z" fill="#C6D6E7"/>
<path d="M47.6399 29.3914H44.0894C44.023 29.3914 43.9688 29.3349 43.9688 29.2659V29.0875C43.9688 29.0184 44.023 28.9619 44.0894 28.9619H47.6399C47.7063 28.9619 47.7606 29.0184 47.7606 29.0875V29.2659C47.7606 29.3349 47.7063 29.3914 47.6399 29.3914Z" fill="#C6D6E7"/>
</svg>
