<svg width="50" height="39" viewBox="0 0 50 39" fill="none" xmlns="http://www.w3.org/2000/svg">
<path d="M39.9999 7.6709H38.957V33.997H39.9999V7.6709Z" fill="#FECD98"/>
<path d="M3.2616 7.6709H2.21875V33.9971H3.2616V7.6709Z" fill="#FECD98"/>
<path d="M38.9529 16.8999H3.25781V33.9971H38.9529V16.8999Z" fill="#F3B15B"/>
<path d="M39.9996 33.9971H2.21875V36.3106H39.9996V33.9971Z" fill="#E2D7BB"/>
<path d="M38.9529 7.6709H3.25781V10.6527H38.9529V7.6709Z" fill="#F3B15B"/>
<path d="M41.2695 7.67102H0.945586C0.878819 7.67102 0.824219 7.61638 0.824219 7.54965V0.121375C0.824219 0.0546084 0.878819 0 0.945586 0H41.2695C41.3363 0 41.3909 0.0546084 41.3909 0.121375V7.54965C41.3909 7.61641 41.3363 7.67102 41.2695 7.67102Z" fill="#5C311F"/>
<path d="M16.6423 20.5923H7.89453V36.3551H16.6423V20.5923Z" fill="#5C311F"/>
<path d="M16.0134 21.21H8.46094V36.3547H16.0134V21.21Z" fill="#6D4931"/>
<path d="M15.4346 21.8457H9.04688V35.1543H15.4346V21.8457Z" fill="#50272F"/>
<path d="M15.4345 21.8457H9.04688V22.5325H15.4345V21.8457Z" fill="#421D27"/>
<path d="M37.3971 20.21H18.1484V32.6722H37.3971V20.21Z" fill="#6D4931"/>
<path d="M36.7978 20.834H18.6992V32.0985H36.7978V20.834Z" fill="#50272F"/>
<path d="M36.7979 20.8477H18.6992V21.5031H36.7979V20.8477Z" fill="#421D27"/>
<path d="M48.8748 37.7416V38.6374H0.230469V37.7416C0.230469 36.9545 0.874438 36.3105 1.66143 36.3105H47.4438C48.2309 36.3105 48.8748 36.9545 48.8748 37.7416Z" fill="#575153"/>
<path d="M35.2421 28.0222H20.2144C20.1652 28.0222 20.125 27.982 20.125 27.9328V27.7974C20.125 27.7482 20.1652 27.708 20.2144 27.708H35.2421C35.2913 27.708 35.3315 27.7482 35.3315 27.7974V27.9328C35.3315 27.982 35.2913 28.0222 35.2421 28.0222Z" fill="#F3B15B"/>
<path d="M35.2851 31.8606H20.2573C20.2082 31.8606 20.168 31.8204 20.168 31.7712V31.6357C20.168 31.5866 20.2082 31.5464 20.2573 31.5464H35.2851C35.3343 31.5464 35.3745 31.5866 35.3745 31.6357V31.7712C35.3745 31.8204 35.3343 31.8606 35.2851 31.8606Z" fill="#F3B15B"/>
<path d="M35.2812 23.905H20.2534C20.2043 23.905 20.1641 23.8648 20.1641 23.8157V23.6802C20.1641 23.631 20.2043 23.5908 20.2534 23.5908H35.2812C35.3304 23.5908 35.3705 23.631 35.3705 23.6802V23.8157C35.3705 23.8648 35.3304 23.905 35.2812 23.905Z" fill="#F3B15B"/>
<path d="M39.9996 7.6709H2.21875V8.72773H39.9996V7.6709Z" fill="#FECD98"/>
<path d="M14.1923 15.8926V17.8471C13.7475 18.8215 12.8553 19.4861 11.8253 19.4861C10.7979 19.4861 9.90574 18.8243 9.46094 17.8526V15.8926H14.1923Z" fill="#D9452A"/>
<path d="M18.9266 15.8926V17.8471C18.4819 18.8215 17.5896 19.4861 16.5597 19.4861C15.5322 19.4861 14.64 18.8243 14.1953 17.8526V15.8926H18.9266Z" fill="#E2D7BB"/>
<path d="M23.6572 15.8926V17.8471C23.6549 17.8522 23.6525 17.8573 23.65 17.8624C23.203 18.8286 22.3147 19.4861 21.2902 19.4861C20.2627 19.4861 19.3706 18.8243 18.9258 17.8526V15.8926H23.6572Z" fill="#D9452A"/>
<path d="M28.3758 15.8926V17.8471C27.9311 18.8215 27.0389 19.4861 26.0089 19.4861C24.9848 19.4861 24.0953 18.8288 23.6491 17.8624C23.6476 17.8592 23.646 17.8559 23.6445 17.8526V15.8926H28.3758Z" fill="#E2D7BB"/>
<path d="M33.1103 15.8926V17.8471C32.6655 18.8215 31.7733 19.4861 30.7433 19.4861C29.7159 19.4861 28.8237 18.8243 28.3789 17.8526V15.8926H33.1103Z" fill="#D9452A"/>
<path d="M11.2262 10.5845H15.1771L14.1923 15.8923H9.46094L11.2262 10.5845Z" fill="#E75637"/>
<path d="M15.1801 10.5845H19.1309L18.9266 15.8923H14.1953L15.1801 10.5845Z" fill="#FEE9C0"/>
<path d="M23.123 10.5845L23.6454 15.8923H18.9258L19.1301 10.5845H23.123Z" fill="#E75637"/>
<path d="M26.9498 10.5845L28.3788 15.8923H23.6475L23.125 10.5845H26.9498Z" fill="#FEE9C0"/>
<path d="M30.9421 10.5845L33.1096 15.8923H28.3783L26.9492 10.5845H30.9421Z" fill="#E75637"/>
<path d="M9.46569 15.8926V17.8471C9.46541 17.8477 9.46509 17.8483 9.46481 17.8489C9.01979 18.8224 8.12813 19.4861 7.09875 19.4861C6.07127 19.4861 5.17907 18.8243 4.73438 17.8526V15.8926H9.46569Z" fill="#E2D7BB"/>
<path d="M11.2315 10.5845L10.8915 11.6058L9.46481 15.8922H4.73438L6.19066 12.8565L6.79064 11.6058L7.28065 10.5845H11.2315Z" fill="#FEE9C0"/>
<path d="M37.8408 15.8926V17.8471C37.396 18.8215 36.5038 19.4861 35.4738 19.4861C34.4464 19.4861 33.5542 18.8243 33.1094 17.8526V15.8926H37.8408Z" fill="#E2D7BB"/>
<path d="M37.8408 15.8922H33.1079L31.3582 11.6058L30.9414 10.5845H34.9344L35.4937 11.6058L37.8408 15.8922Z" fill="#FEE9C0"/>
<path d="M4.73137 15.8931V17.8475C4.28656 18.8219 3.39438 19.4865 2.36436 19.4865C2.31568 19.4865 2.26727 19.485 2.21925 19.482C1.25346 19.4231 0.42369 18.7787 0 17.8531V15.8931H4.73137Z" fill="#D9452A"/>
<path d="M7.27921 10.5845L6.78905 11.6058L6.18873 12.8565L4.73245 15.8909L4.7314 15.8931H0L3.32832 10.5845H7.27921Z" fill="#E75637"/>
<path d="M42.5712 15.8926V17.8471C42.1264 18.8215 41.2343 19.4861 40.2042 19.4861C40.1348 19.4861 40.0661 19.483 39.998 19.4771C39.0583 19.3952 38.2547 18.7587 37.8398 17.8526V15.8926H42.5712Z" fill="#D9452A"/>
<path d="M42.5719 15.8922H37.8405L37.8395 15.8905L35.5018 11.6221L35.4929 11.6058L34.9336 10.5845H38.9264L42.5719 15.8922Z" fill="#E75637"/>
<path opacity="0.25" d="M15.4288 29.2432V33.379L13.8888 35.1541H10.3008L15.4288 29.2432Z" fill="white"/>
<path opacity="0.25" d="M15.4346 23.4326V26.5346L9.04688 33.8975V30.7956L15.4346 23.4326Z" fill="white"/>
<path opacity="0.25" d="M15.4346 21.8457V21.8642L9.04688 29.2271V25.0912L11.8624 21.8457H15.4346Z" fill="white"/>
<path d="M13.8492 25.9248H10.5938V27.3611H13.8492V25.9248Z" fill="#575153"/>
<path opacity="0.29" d="M39.9996 19.4769V19.9484C39.625 19.9178 39.2721 19.8046 38.9567 19.6255C38.4808 19.3555 38.0905 18.9357 37.8411 18.4244L37.8385 18.4223C37.3933 19.3347 36.5019 19.9567 35.4731 19.9567C34.4457 19.9567 33.5535 19.336 33.1087 18.4244L33.1057 18.4221C32.6604 19.3345 31.7691 19.9567 30.7401 19.9567C29.7127 19.9567 28.8206 19.336 28.3758 18.4244V18.4192C27.931 19.3333 27.0388 19.9567 26.0088 19.9567C24.9849 19.9567 24.0954 19.3401 23.649 18.4337C23.2019 19.3399 22.3138 19.9567 21.2892 19.9567C20.2618 19.9567 19.3696 19.336 18.9248 18.4244V18.4192C18.48 19.3333 17.5879 19.9567 16.5578 19.9567C15.5304 19.9567 14.6382 19.336 14.1934 18.4244V18.4192C13.7487 19.3333 12.8566 19.9567 11.8265 19.9567C10.799 19.9567 9.90683 19.336 9.46209 18.4244V18.421C9.017 19.3343 8.12532 19.9567 7.09605 19.9567C6.06857 19.9567 5.17637 19.336 4.73157 18.4244V18.4163L4.73059 18.42C4.42189 19.0545 3.89775 19.5488 3.2616 19.792C2.98107 19.8993 2.67873 19.9576 2.36358 19.9576C2.315 19.9576 2.26666 19.9562 2.21875 19.9535V19.4824C2.26676 19.4853 2.31517 19.4868 2.36385 19.4868C3.39391 19.4868 4.28606 18.8223 4.73086 17.8479V15.8933L4.73195 15.8911V17.8525C5.17665 18.8241 6.06884 19.4859 7.09632 19.4859C8.12567 19.4859 9.01737 18.8223 9.46238 17.8487V17.8524C9.90719 18.8241 10.7994 19.4859 11.8268 19.4859C12.8568 19.4859 13.749 18.8214 14.1938 17.8469V17.8524C14.6385 18.8241 15.5307 19.4859 16.5581 19.4859C17.5881 19.4859 18.4803 18.8214 18.9251 17.8469V17.8524C19.3699 18.8241 20.262 19.4859 21.2895 19.4859C22.314 19.4859 23.2023 18.8284 23.6493 17.8622C24.0955 18.8286 24.9851 19.4859 26.0091 19.4859C27.0392 19.4859 27.9313 18.8214 28.3761 17.8469V17.8524C28.8209 18.8241 29.7131 19.4859 30.7405 19.4859C31.7705 19.4859 32.6627 18.8214 33.1075 17.8469V15.8924H33.109V17.8524C33.5538 18.8241 34.446 19.4859 35.4734 19.4859C36.5035 19.4859 37.3956 18.8214 37.8404 17.8469V15.8906L37.8414 15.8924V17.8524C38.2562 18.7585 39.0599 19.3951 39.9996 19.4769Z" fill="#332E2A"/>
<path opacity="0.32" d="M4.7309 15.8933V15.6282H2.21875V15.6281H4.7309L6.18823 12.7793L4.73195 15.6273V15.891L4.7309 15.8933Z" fill="#57886B"/>
<path opacity="0.32" d="M37.8393 15.8907V15.6273L35.5017 11.6223L35.4922 11.606H35.4928L37.8403 15.6273V15.8924L37.8393 15.8907Z" fill="#57886B"/>
<path d="M41.3985 6.49463H0.824219V6.92829H41.3985V6.49463Z" fill="#6D4931"/>
<path d="M5.69554 24.2327H3.84718C3.76367 24.2327 3.69531 24.1644 3.69531 24.0808V23.4336C3.69531 23.3501 3.76363 23.2817 3.84718 23.2817H5.69554C5.77908 23.2817 5.8474 23.3501 5.8474 23.4336V24.0808C5.84737 24.1644 5.77905 24.2327 5.69554 24.2327Z" fill="#FECD98"/>
<path d="M7.34007 25.4485H5.49171C5.4082 25.4485 5.33984 25.3801 5.33984 25.2966V24.6494C5.33984 24.5659 5.40817 24.4976 5.49171 24.4976H7.34007C7.42358 24.4976 7.49192 24.5659 7.49192 24.6494V25.2966C7.49192 25.3801 7.42358 25.4485 7.34007 25.4485Z" fill="#FECD98"/>
<path d="M5.69554 28.949H3.84718C3.76367 28.949 3.69531 28.8806 3.69531 28.7971V28.1499C3.69531 28.0664 3.76363 27.998 3.84718 27.998H5.69554C5.77908 27.998 5.8474 28.0664 5.8474 28.1499V28.7971C5.84737 28.8806 5.77905 28.949 5.69554 28.949Z" fill="#FECD98"/>
<path d="M7.34007 31.6423H5.49171C5.4082 31.6423 5.33984 31.574 5.33984 31.4905V30.8433C5.33984 30.7598 5.40817 30.6914 5.49171 30.6914H7.34007C7.42358 30.6914 7.49192 30.7597 7.49192 30.8433V31.4905C7.49192 31.574 7.42358 31.6423 7.34007 31.6423Z" fill="#FECD98"/>
<path d="M38.9236 10.2568H3.25781V10.5848H38.9236V10.2568Z" fill="#E39441"/>
<path d="M43.3351 26.5381L44.4338 36.3204H43.9556L43.6263 33.3888H40.0993L40.4285 36.3204H39.9503L38.8516 26.5381H43.3351Z" fill="#5C311F"/>
<path d="M43.5647 32.8576H40.0376L39.3867 27.063H42.9139L43.5647 32.8576Z" fill="#040404"/>
<path d="M38.4933 26.5381L37.3945 36.3204H37.8728L38.202 33.3888H41.7291L41.3998 36.3204H41.8781L42.9768 26.5381H38.4933Z" fill="#6D4931"/>
<path d="M38.2617 32.8571H41.7888L42.4397 27.0625H38.9126L38.2617 32.8571Z" fill="#040404"/>
<path d="M44.664 9.61572H44.3828V12.6211H44.664V9.61572Z" fill="#4E5055"/>
<path d="M47.2735 12.6211H47.5547V9.61574H47.2735V12.6211Z" fill="#4E5055"/>
<path d="M46.8766 16.9259C46.8419 16.9259 46.8161 16.925 46.8013 16.9244H45.0952C45.0822 16.9244 45.0692 16.9236 45.0563 16.9222C44.1309 16.8173 43.5852 16.3587 43.5624 16.3392C43.4589 16.2506 43.417 16.1095 43.4555 15.9789C43.9719 14.2268 45.8376 12.7172 46.7369 12.3644C47.2594 12.1594 47.9199 12.2048 48.4607 12.4829C48.9614 12.7403 49.3104 13.1727 49.4434 13.7004C49.5819 14.2497 49.4731 14.8281 49.12 15.4198C48.8461 15.8786 48.4816 16.2475 48.224 16.4762C47.7626 16.8859 47.1126 16.9259 46.8766 16.9259ZM45.1154 16.2333H46.8101C46.8176 16.2333 46.8251 16.2335 46.8325 16.234C46.8371 16.2343 47.4221 16.264 47.7652 15.9594C48.1423 15.6245 48.9955 14.7506 48.7733 13.8693C48.6659 13.4433 48.3722 13.2144 48.1447 13.0974C47.7808 12.9104 47.3274 12.8752 46.9894 13.0077C46.67 13.1331 46.0575 13.5314 45.4677 14.11C44.7381 14.8256 44.377 15.469 44.1984 15.938C44.4019 16.053 44.7225 16.1858 45.1154 16.2333Z" fill="#6D4931"/>
<path d="M45.0666 16.926C44.8306 16.926 44.1806 16.886 43.7191 16.4762C43.4615 16.2475 43.0969 15.8786 42.8231 15.4198C42.47 14.8282 42.3611 14.2497 42.4996 13.7004C42.6327 13.1728 42.9817 12.7404 43.4824 12.4829C44.0231 12.2048 44.6837 12.1594 45.2061 12.3644C46.1055 12.7172 47.9712 14.2268 48.4875 15.9789C48.526 16.1096 48.4842 16.2507 48.3806 16.3392C48.3578 16.3587 47.8122 16.8173 46.8867 16.9222C46.8738 16.9237 46.8608 16.9244 46.8478 16.9244H45.1418C45.127 16.9251 45.1012 16.926 45.0666 16.926ZM44.5026 12.9282C44.265 12.9282 44.0158 12.9858 43.7985 13.0975C43.571 13.2145 43.2772 13.4434 43.1698 13.8694C42.9476 14.7506 43.8008 15.6246 44.1779 15.9595C44.521 16.2641 45.1061 16.2343 45.1119 16.234C45.1194 16.2335 45.1255 16.2334 45.133 16.2334H46.8277C47.2207 16.1858 47.5412 16.0531 47.7448 15.9381C47.5662 15.4691 47.2051 14.8257 46.4755 14.1101C46.062 13.7046 45.4095 13.1866 44.9538 13.0079C44.8177 12.9544 44.6628 12.9282 44.5026 12.9282Z" fill="#6D4931"/>
<path d="M49.9994 8.66797H41.1523V9.61581H49.9994V8.66797Z" fill="#65666A"/>
<path d="M9.56939 27.1904H8.75391V27.5404H9.34601C9.48997 27.5404 9.60785 27.6583 9.60785 27.8022V28.7267C9.60785 28.8707 9.48997 28.9884 9.34601 28.9884H8.75391V29.3385H9.56939C9.78309 29.3385 9.95783 29.1637 9.95783 28.95V27.5786C9.9578 27.3652 9.78305 27.1904 9.56939 27.1904Z" fill="#DCE6F5"/>
<path d="M24.3554 23.2714C24.3554 23.5377 23.959 23.5906 23.959 23.5906H21.6854C21.6854 23.5906 21.2891 23.5378 21.2891 23.2714C21.2891 23.0839 21.4812 22.8239 21.9976 22.6865C22.1533 22.6451 22.3386 22.6149 22.557 22.6011C22.615 22.5974 22.6754 22.5949 22.7381 22.5937C22.7634 22.5932 22.789 22.5929 22.815 22.5928L22.8151 22.5928C22.8174 22.5928 22.8198 22.5928 22.8221 22.5928C22.8245 22.5928 22.8269 22.5928 22.8293 22.5928L22.8293 22.5928C22.98 22.5933 23.1175 22.6008 23.2426 22.6141C23.2979 22.6201 23.3507 22.6271 23.4013 22.6351C23.5244 22.6548 23.6337 22.6804 23.7302 22.7107C24.1841 22.8527 24.3554 23.0944 24.3554 23.2714Z" fill="#B2743C"/>
<path d="M21.9994 22.6866C22.1551 22.6451 22.3404 22.6149 22.5588 22.6011C22.1626 22.7901 21.9529 23.124 21.9009 22.9956C21.8648 22.9065 21.9305 22.7825 21.9994 22.6866Z" fill="#BC8C61"/>
<path d="M22.8296 22.5928C22.9803 22.5933 23.1177 22.6008 23.2428 22.6141C22.8331 22.8298 22.6145 23.1684 22.5584 23.0301C22.5053 22.899 22.6478 22.701 22.7383 22.5937C22.7636 22.5932 22.7892 22.5929 22.8153 22.5928L22.8153 22.5928C22.8176 22.5928 22.82 22.5928 22.8224 22.5928C22.8248 22.5928 22.8271 22.5928 22.8295 22.5928L22.8296 22.5928Z" fill="#BC8C61"/>
<path d="M23.7306 22.7103C23.4571 22.8927 23.3071 23.1011 23.2642 22.9953C23.2211 22.8892 23.3225 22.7337 23.4017 22.6348C23.5248 22.6544 23.6341 22.6801 23.7306 22.7103Z" fill="#BC8C61"/>
<path d="M27.6288 23.2714C27.6288 23.5377 27.2325 23.5906 27.2325 23.5906H24.9588C24.9588 23.5906 24.5625 23.5378 24.5625 23.2714C24.5625 23.0839 24.7546 22.8239 25.271 22.6865C25.4268 22.6451 25.612 22.6149 25.8305 22.6011C25.8885 22.5974 25.9488 22.5949 26.0116 22.5937C26.0368 22.5932 26.0624 22.5929 26.0885 22.5928L26.0885 22.5928C26.0908 22.5928 26.0933 22.5928 26.0956 22.5928C26.098 22.5928 26.1003 22.5928 26.1027 22.5928L26.1028 22.5928C26.2535 22.5933 26.3909 22.6008 26.516 22.6141C26.5713 22.6201 26.6242 22.6271 26.6747 22.6351C26.7978 22.6548 26.9071 22.6804 27.0036 22.7107C27.4575 22.8527 27.6288 23.0944 27.6288 23.2714Z" fill="#B2743C"/>
<path d="M25.2728 22.6866C25.4285 22.6451 25.6138 22.6149 25.8323 22.6011C25.4361 22.7901 25.2263 23.124 25.1743 22.9956C25.1382 22.9065 25.2039 22.7825 25.2728 22.6866Z" fill="#BC8C61"/>
<path d="M26.103 22.5928C26.2537 22.5933 26.3912 22.6008 26.5163 22.6141C26.1066 22.8298 25.8879 23.1684 25.8319 23.0301C25.7787 22.899 25.9212 22.701 26.0118 22.5937C26.037 22.5932 26.0626 22.5929 26.0887 22.5928L26.0887 22.5928C26.091 22.5928 26.0935 22.5928 26.0958 22.5928C26.0982 22.5928 26.1006 22.5928 26.103 22.5928Z" fill="#BC8C61"/>
<path d="M27.004 22.7103C26.7306 22.8927 26.5805 23.1011 26.5376 22.9953C26.4946 22.8892 26.5959 22.7337 26.6752 22.6348C26.7983 22.6544 26.9075 22.6801 27.004 22.7103Z" fill="#BC8C61"/>
<path d="M30.9139 23.2714C30.9139 23.5377 30.5176 23.5906 30.5176 23.5906H28.244C28.244 23.5906 27.8477 23.5378 27.8477 23.2714C27.8477 23.0839 28.0397 22.8239 28.5562 22.6865C28.7119 22.6451 28.8972 22.6149 29.1157 22.6011C29.1737 22.5974 29.234 22.5949 29.2967 22.5937C29.322 22.5932 29.3476 22.5929 29.3737 22.5928L29.3737 22.5928C29.3761 22.5928 29.3785 22.5928 29.3808 22.5928C29.3832 22.5928 29.3856 22.5928 29.388 22.5928L29.388 22.5928C29.5387 22.5933 29.6761 22.6008 29.8012 22.6141C29.8565 22.6201 29.9094 22.6271 29.9599 22.6351C30.0831 22.6548 30.1923 22.6804 30.2888 22.7107C30.7426 22.8527 30.9139 23.0944 30.9139 23.2714Z" fill="#B2743C"/>
<path d="M28.5579 22.6866C28.7137 22.6451 28.8989 22.6149 29.1174 22.6011C28.7212 22.7901 28.5115 23.124 28.4595 22.9956C28.4234 22.9065 28.489 22.7825 28.5579 22.6866Z" fill="#BC8C61"/>
<path d="M29.3882 22.5928C29.5388 22.5933 29.6763 22.6008 29.8014 22.6141C29.3917 22.8298 29.1731 23.1684 29.117 23.0301C29.0639 22.899 29.2063 22.701 29.2969 22.5937C29.3222 22.5932 29.3478 22.5929 29.3739 22.5928L29.3739 22.5928C29.3763 22.5928 29.3787 22.5928 29.381 22.5928C29.3834 22.5928 29.3857 22.5928 29.3881 22.5928L29.3882 22.5928Z" fill="#BC8C61"/>
<path d="M30.2892 22.7103C30.0157 22.8927 29.8657 23.1011 29.8228 22.9953C29.7797 22.8892 29.881 22.7337 29.9603 22.6348C30.0834 22.6544 30.1927 22.6801 30.2892 22.7103Z" fill="#BC8C61"/>
<path d="M34.1718 23.2714C34.1718 23.5377 33.7754 23.5906 33.7754 23.5906H31.5018C31.5018 23.5906 31.1055 23.5378 31.1055 23.2714C31.1055 23.0839 31.2976 22.8239 31.814 22.6865C31.9697 22.6451 32.155 22.6149 32.3734 22.6011C32.4315 22.5974 32.4918 22.5949 32.5545 22.5937C32.5798 22.5932 32.6054 22.5929 32.6314 22.5928L32.6315 22.5928C32.6338 22.5928 32.6362 22.5928 32.6386 22.5928C32.641 22.5928 32.6433 22.5928 32.6457 22.5928L32.6458 22.5928C32.7964 22.5933 32.9339 22.6008 33.059 22.6141C33.1143 22.6201 33.1672 22.6271 33.2177 22.6351C33.3408 22.6548 33.4501 22.6804 33.5466 22.7107C34.0005 22.8527 34.1718 23.0944 34.1718 23.2714Z" fill="#B2743C"/>
<path d="M31.8158 22.6866C31.9715 22.6451 32.1568 22.6149 32.3752 22.6011C31.979 22.7901 31.7693 23.124 31.7173 22.9956C31.6812 22.9065 31.7469 22.7825 31.8158 22.6866Z" fill="#BC8C61"/>
<path d="M32.646 22.5928C32.7967 22.5933 32.9341 22.6008 33.0593 22.6141C32.6496 22.8298 32.4309 23.1684 32.3748 23.0301C32.3217 22.899 32.4642 22.701 32.5547 22.5937C32.58 22.5932 32.6056 22.5929 32.6317 22.5928L32.6317 22.5928C32.634 22.5928 32.6364 22.5928 32.6388 22.5928C32.6412 22.5928 32.6435 22.5928 32.6459 22.5928L32.646 22.5928Z" fill="#BC8C61"/>
<path d="M33.547 22.7103C33.2735 22.8927 33.1235 23.1011 33.0806 22.9953C33.0375 22.8892 33.1388 22.7337 33.2181 22.6348C33.3412 22.6544 33.4505 22.6801 33.547 22.7103Z" fill="#BC8C61"/>
<path d="M22.8726 26.6656C22.8696 26.2633 22.4804 25.938 22.0009 25.938C21.5212 25.938 21.132 26.2633 21.129 26.6656C21.1289 26.6671 21.1289 26.6688 21.1289 26.6704C21.1289 26.6721 21.1289 26.6737 21.129 26.6753C21.1315 26.7252 21.1732 26.7652 21.2237 26.7652H21.2907V27.5339C21.2907 27.6298 21.3692 27.7083 21.4651 27.7083H22.5614C22.6573 27.7083 22.7358 27.6298 22.7358 27.5339V26.7652H22.778C22.804 26.7652 22.8277 26.7545 22.8448 26.7373C22.8609 26.7212 22.8714 26.6994 22.8726 26.6753C22.8727 26.6738 22.8727 26.6721 22.8727 26.6704C22.8727 26.6688 22.8727 26.6671 22.8726 26.6656Z" fill="#B2743C"/>
<path d="M25.2007 26.6656C25.1978 26.2633 24.8085 25.938 24.329 25.938C23.8493 25.938 23.4601 26.2633 23.4571 26.6656C23.457 26.6671 23.457 26.6688 23.457 26.6704C23.457 26.6721 23.457 26.6737 23.4571 26.6753C23.4597 26.7252 23.5013 26.7652 23.5518 26.7652H23.6189V27.5339C23.6189 27.6298 23.6973 27.7083 23.7932 27.7083H24.8895C24.9854 27.7083 25.0639 27.6298 25.0639 27.5339V26.7652H25.1062C25.1321 26.7652 25.1558 26.7545 25.173 26.7373C25.1891 26.7212 25.1995 26.6994 25.2007 26.6753C25.2008 26.6738 25.2008 26.6721 25.2008 26.6704C25.2008 26.6688 25.2008 26.6671 25.2007 26.6656Z" fill="#B2743C"/>
<path d="M27.3765 26.6656C27.3735 26.2633 26.9843 25.938 26.5047 25.938C26.0251 25.938 25.6359 26.2633 25.6329 26.6656C25.6328 26.6671 25.6328 26.6688 25.6328 26.6704C25.6328 26.6721 25.6328 26.6737 25.6329 26.6753C25.6354 26.7252 25.6771 26.7652 25.7276 26.7652H25.7946V27.5339C25.7946 27.6298 25.8731 27.7083 25.969 27.7083H27.0653C27.1612 27.7083 27.2397 27.6298 27.2397 27.5339V26.7652H27.2819C27.3079 26.7652 27.3316 26.7545 27.3487 26.7373C27.3649 26.7212 27.3753 26.6994 27.3765 26.6753C27.3766 26.6738 27.3766 26.6721 27.3766 26.6704C27.3766 26.6688 27.3766 26.6671 27.3765 26.6656Z" fill="#B2743C"/>
<path d="M23.6037 31.4022C23.6037 31.4047 23.6037 31.4072 23.6035 31.4095C23.6017 31.4463 23.5858 31.4796 23.5612 31.5042C23.5351 31.5304 23.4991 31.5467 23.4594 31.5467H21.0898C21.0129 31.5467 20.9493 31.4856 20.9455 31.4096C20.9453 31.4072 20.9453 31.4047 20.9453 31.4022C20.9453 31.3997 20.9453 31.3972 20.9455 31.3949C20.95 30.7816 21.5434 30.2856 22.2746 30.2856C23.0056 30.2856 23.5991 30.7816 23.6036 31.3949C23.6037 31.3971 23.6037 31.3997 23.6037 31.4022Z" fill="#B2743C"/>
<path d="M29.6265 26.6656C29.6236 26.2633 29.2343 25.938 28.7548 25.938C28.2751 25.938 27.8859 26.2633 27.8829 26.6656C27.8828 26.6671 27.8828 26.6688 27.8828 26.6704C27.8828 26.6721 27.8828 26.6737 27.8829 26.6753C27.8855 26.7252 27.9271 26.7652 27.9776 26.7652H28.0447V27.5339C28.0447 27.6298 28.1231 27.7083 28.219 27.7083H29.3153C29.4112 27.7083 29.4897 27.6298 29.4897 27.5339V26.7652H29.532C29.5579 26.7652 29.5817 26.7545 29.5988 26.7373C29.6149 26.7212 29.6253 26.6994 29.6265 26.6753C29.6266 26.6738 29.6266 26.6721 29.6266 26.6704C29.6266 26.6688 29.6266 26.6671 29.6265 26.6656Z" fill="#B2743C"/>
<path d="M31.9546 26.6656C31.9517 26.2633 31.5624 25.938 31.0829 25.938C30.6032 25.938 30.214 26.2633 30.211 26.6656C30.2109 26.6671 30.2109 26.6688 30.2109 26.6704C30.2109 26.6721 30.2109 26.6737 30.211 26.6753C30.2136 26.7252 30.2552 26.7652 30.3057 26.7652H30.3728V27.5339C30.3728 27.6298 30.4513 27.7083 30.5471 27.7083H31.6435C31.7394 27.7083 31.8178 27.6298 31.8178 27.5339V26.7652H31.8601C31.8861 26.7652 31.9098 26.7545 31.9269 26.7373C31.943 26.7212 31.9534 26.6994 31.9546 26.6753C31.9547 26.6738 31.9547 26.6721 31.9547 26.6704C31.9547 26.6688 31.9547 26.6671 31.9546 26.6656Z" fill="#B2743C"/>
<path d="M34.1304 26.6656C34.1274 26.2633 33.7382 25.938 33.2586 25.938C32.779 25.938 32.3898 26.2633 32.3868 26.6656C32.3867 26.6671 32.3867 26.6688 32.3867 26.6704C32.3867 26.6721 32.3867 26.6737 32.3868 26.6753C32.3893 26.7252 32.431 26.7652 32.4815 26.7652H32.5486V27.5339C32.5486 27.6298 32.627 27.7083 32.7229 27.7083H33.8192C33.9151 27.7083 33.9936 27.6298 33.9936 27.5339V26.7652H34.0359C34.0619 26.7652 34.0855 26.7545 34.1027 26.7373C34.1188 26.7212 34.1292 26.6994 34.1304 26.6753C34.1305 26.6738 34.1305 26.6721 34.1305 26.6704C34.1305 26.6688 34.1305 26.6671 34.1304 26.6656Z" fill="#B2743C"/>
<path d="M26.9357 31.4022C26.9357 31.4047 26.9358 31.4072 26.9356 31.4095C26.9338 31.4463 26.9179 31.4796 26.8933 31.5042C26.8672 31.5304 26.8311 31.5467 26.7915 31.5467H24.4218C24.3449 31.5467 24.2814 31.4856 24.2775 31.4096C24.2773 31.4072 24.2773 31.4047 24.2773 31.4022C24.2773 31.3997 24.2773 31.3972 24.2775 31.3949C24.282 30.7816 24.8755 30.2856 25.6066 30.2856C26.3377 30.2856 26.9311 30.7816 26.9356 31.3949C26.9358 31.3971 26.9357 31.3997 26.9357 31.4022Z" fill="#B2743C"/>
<path d="M33.9569 31.227C33.9569 31.4933 33.5606 31.5462 33.5606 31.5462H31.2869C31.2869 31.5462 30.8906 31.4933 30.8906 31.227C30.8906 31.0395 31.0827 30.7795 31.5991 30.6421C31.7549 30.6007 31.9402 30.5704 32.1586 30.5566C32.2166 30.553 32.2769 30.5505 32.3397 30.5493C32.3649 30.5487 32.3906 30.5485 32.4166 30.5484L32.4166 30.5483C32.419 30.5483 32.4214 30.5483 32.4237 30.5484C32.4261 30.5483 32.4285 30.5483 32.4309 30.5483L32.4309 30.5484C32.5816 30.5488 32.719 30.5563 32.8442 30.5697C32.8994 30.5756 32.9523 30.5826 33.0029 30.5907C33.126 30.6103 33.2353 30.636 33.3317 30.6662C33.7856 30.8083 33.9569 31.05 33.9569 31.227Z" fill="#B2743C"/>
<path d="M31.6009 30.6421C31.7567 30.6007 31.9419 30.5704 32.1604 30.5566C31.7642 30.7457 31.5545 31.0796 31.5024 30.9512C31.4663 30.8621 31.532 30.7381 31.6009 30.6421Z" fill="#BC8C61"/>
<path d="M32.4312 30.5484C32.5818 30.5488 32.7193 30.5563 32.8444 30.5697C32.4347 30.7854 32.2161 31.1239 32.16 30.9856C32.1069 30.8545 32.2493 30.6566 32.3399 30.5493C32.3651 30.5487 32.3908 30.5485 32.4168 30.5484L32.4169 30.5483C32.4192 30.5483 32.4216 30.5483 32.4239 30.5484C32.4263 30.5483 32.4287 30.5483 32.4311 30.5483L32.4312 30.5484Z" fill="#BC8C61"/>
<path d="M33.3321 30.6658C33.0587 30.8482 32.9086 31.0567 32.8657 30.9508C32.8227 30.8447 32.924 30.6892 33.0033 30.5903C33.1264 30.6099 33.2356 30.6356 33.3321 30.6658Z" fill="#BC8C61"/>
<path d="M29.7827 30.503C29.7798 30.1007 29.3905 29.7754 28.911 29.7754C28.4314 29.7754 28.0421 30.1007 28.0392 30.503C28.0391 30.5045 28.0391 30.5062 28.0391 30.5078C28.0391 30.5095 28.0391 30.5111 28.0392 30.5126C28.0417 30.5626 28.0833 30.6026 28.1338 30.6026H28.2009V31.3713C28.2009 31.4672 28.2794 31.5456 28.3753 31.5456H29.4716C29.5675 31.5456 29.6459 31.4671 29.6459 31.3713V30.6026H29.6882C29.7142 30.6026 29.7379 30.5919 29.755 30.5747C29.7712 30.5586 29.7815 30.5367 29.7827 30.5126C29.7829 30.5111 29.7829 30.5094 29.7829 30.5078C29.7828 30.5062 29.7828 30.5045 29.7827 30.503Z" fill="#B2743C"/>
<path opacity="0.25" d="M35.5835 20.8345L25.8111 32.0989H19.9805L29.7529 20.8345H35.5835Z" fill="white"/>
<path opacity="0.25" d="M36.8007 24.4307V27.5326L32.8394 32.0986H30.1484L36.8007 24.4307Z" fill="white"/>
<path opacity="0.25" d="M26.3132 20.834L18.6992 29.6104V25.4745L22.7251 20.834H26.3132Z" fill="white"/>
<path opacity="0.58" d="M31.1574 26.1289C31.0165 25.5704 30.647 25.1126 30.117 24.8401C29.5445 24.5457 28.8453 24.4976 28.2922 24.7146C28.0682 24.8025 27.7877 24.9581 27.4826 25.1688C27.1774 24.9581 26.8969 24.8025 26.673 24.7146C26.1199 24.4976 25.4207 24.5457 24.8482 24.8401C24.3181 25.1126 23.9486 25.5704 23.8078 26.1289C23.6611 26.7105 23.7763 27.3229 24.1502 27.9492C24.3645 28.3082 24.6312 28.6151 24.8659 28.8486C24.8842 28.8757 24.906 28.9007 24.9315 28.9225C24.9356 28.9259 24.9553 28.9425 24.9895 28.968C25.0274 29.0035 25.064 29.0368 25.0987 29.0676C25.5873 29.5014 26.2755 29.5437 26.5253 29.5437C26.5619 29.5437 26.5892 29.5427 26.6049 29.542H28.3603C28.3761 29.5428 28.4033 29.5437 28.44 29.5437C28.6899 29.5437 29.378 29.5013 29.8665 29.0676C29.9012 29.0368 29.9378 29.0035 29.9758 28.968C30.0099 28.9425 30.0297 28.9259 30.0337 28.9225C30.0593 28.9006 30.0811 28.8757 30.0993 28.8486C30.334 28.6151 30.6008 28.3082 30.8151 27.9492C31.1888 27.3229 31.304 26.7105 31.1574 26.1289ZM24.5172 26.3078C24.6309 25.8569 24.9419 25.6146 25.1827 25.4907C25.4128 25.3724 25.6766 25.3115 25.9281 25.3115C26.0977 25.3115 26.2617 25.3392 26.4057 25.3957C26.5466 25.451 26.7053 25.537 26.8702 25.6416C26.1743 26.2361 25.4593 27.0478 25.0418 27.9518C24.6871 27.5076 24.3655 26.9093 24.5172 26.3078ZM26.5955 28.8104H26.5755C26.1596 28.7601 25.8202 28.6195 25.6047 28.4978C25.7937 28.0013 26.176 27.3202 26.9484 26.5626C27.1268 26.3877 27.3071 26.2283 27.4816 26.0868C27.6778 26.2463 27.8629 26.4118 28.0167 26.5626C28.7891 27.3202 29.1714 28.0013 29.3604 28.4978C29.1449 28.6195 28.8055 28.7601 28.3896 28.8104H28.3696H26.5955ZM29.9233 27.9518C29.506 27.0483 28.7916 26.237 28.0959 25.6426C28.2795 25.5268 28.4391 25.4429 28.5593 25.3957C28.9171 25.2554 29.3972 25.2927 29.7824 25.4907C30.0232 25.6146 30.3342 25.8569 30.4479 26.3078C30.5996 26.9093 30.278 27.5076 29.9233 27.9518Z" fill="white"/>
<path d="M13.6762 26.1338H10.7891V27.1361H13.6762V26.1338Z" fill="white"/>
<path d="M6.63688 4.46571C7.07342 4.02918 7.07341 3.32141 6.63688 2.88488C6.20034 2.44835 5.49258 2.44835 5.05604 2.88488C4.61951 3.32141 4.61951 4.02917 5.05604 4.4657C5.49258 4.90224 6.20035 4.90224 6.63688 4.46571Z" fill="#E2D7BB"/>
<path d="M37.5861 4.46571C38.0226 4.02918 38.0226 3.32141 37.5861 2.88488C37.1496 2.44835 36.4418 2.44835 36.0053 2.88488C35.5687 3.32141 35.5687 4.02917 36.0053 4.4657C36.4418 4.90224 37.1496 4.90224 37.5861 4.46571Z" fill="#E2D7BB"/>
<path d="M14.618 2.02734C15.0256 2.02734 15.3208 2.08562 15.5033 2.20205C15.6857 2.31859 15.7771 2.49474 15.7771 2.73061V2.83981C15.7771 2.99707 15.7367 3.12669 15.6562 3.22857C15.5755 3.33055 15.4475 3.4062 15.2722 3.4557C15.4855 3.50522 15.6359 3.58602 15.7237 3.69812C15.8114 3.81025 15.8553 3.94784 15.8553 4.11091V4.35989C15.8553 4.59576 15.7557 4.77561 15.5566 4.89934C15.3575 5.02318 15.0612 5.08501 14.6677 5.08501H13.4375V2.02738L14.618 2.02734ZM14.2197 2.46417V3.27224H14.5255C14.6724 3.27224 14.7874 3.24898 14.8704 3.20238C14.9533 3.15585 14.9949 3.07135 14.9949 2.94903V2.77866C14.9949 2.66804 14.9628 2.58798 14.8988 2.53845C14.8348 2.48896 14.7341 2.46422 14.5966 2.46422H14.2197V2.46417ZM14.2197 3.70905V4.64818H14.6677C14.8004 4.64818 14.9012 4.62636 14.97 4.58268C15.0386 4.539 15.0731 4.46035 15.0731 4.34681V4.08035C15.0731 3.93772 15.034 3.84015 14.9557 3.78769C14.8775 3.73527 14.7483 3.70908 14.5682 3.70908L14.2197 3.70905Z" fill="#E2D7BB"/>
<path d="M18.855 5.08498H18.0656L17.9305 4.53026H16.9705L16.8354 5.08498H16.1172L16.9136 2.02734H18.0585L18.855 5.08498ZM17.0701 4.11528H17.8239L17.447 2.56898L17.0701 4.11528Z" fill="#E2D7BB"/>
<path d="M20.2466 3.86627L20.0049 4.14584V5.08498H19.2227V2.02734H20.0049V3.3596L21.0289 2.02734H21.8111L20.7231 3.39016L21.8111 5.08498H21.0075L20.2466 3.86627Z" fill="#E2D7BB"/>
<path d="M22.9463 3.31589H24.0201V3.75272H22.9463V4.64814H24.2974V5.08498H22.1641V2.02734H24.2974V2.46418H22.9463V3.31589Z" fill="#E2D7BB"/>
<path d="M26.4129 5.08501C26.4034 5.06467 26.3939 5.04571 26.3844 5.02822C26.3749 5.01077 26.3667 4.98895 26.3595 4.96273C26.3525 4.93653 26.3477 4.90308 26.3453 4.86226C26.3429 4.82151 26.3418 4.7705 26.3418 4.70937V4.22886C26.3418 4.08623 26.3014 3.98576 26.2209 3.92746C26.1402 3.86926 26.0099 3.8401 25.8297 3.8401H25.5595V5.08498H24.7773V2.02734H25.9577C26.3654 2.02734 26.6606 2.08562 26.8431 2.20205C27.0256 2.31859 27.1169 2.49474 27.1169 2.73061V2.97081C27.1169 3.28532 26.9462 3.4921 26.6049 3.59109C26.804 3.64062 26.9402 3.72145 27.0138 3.83351C27.0872 3.94568 27.124 4.08183 27.124 4.24194V4.71371C27.124 4.78943 27.1287 4.85567 27.1382 4.91246C27.1477 4.96925 27.1713 5.02678 27.2093 5.08501H26.4129ZM25.5596 2.46421V3.40334H25.8653C26.0122 3.40334 26.1273 3.38008 26.2103 3.33348C26.2931 3.28695 26.3346 3.20241 26.3346 3.08013V2.77869C26.3346 2.66807 26.3027 2.58802 26.2387 2.53849C26.1747 2.489 26.0739 2.46425 25.9364 2.46425H25.5596V2.46421Z" fill="#E2D7BB"/>
<path d="M28.2971 4.0716L27.3086 2.02734H28.1264L28.7237 3.42076L29.321 2.02734H30.0677L29.0793 4.0716V5.08498H28.2971V4.0716Z" fill="#E2D7BB"/>
<path d="M41.1537 7.87155V10.5246C41.1537 10.6349 41.0634 10.7252 40.9531 10.7252H40V7.6709H40.9531C41.0634 7.6709 41.1537 7.76121 41.1537 7.87155Z" fill="#7A7C80"/>
</svg>
