<svg width="50" height="38" viewBox="0 0 50 38" fill="none" xmlns="http://www.w3.org/2000/svg">
<path d="M39.4729 7.44385H38.4609V32.99H39.4729V7.44385Z" fill="#B8D2D2"/>
<path d="M3.82447 7.44385H2.8125V32.9901H3.82447V7.44385Z" fill="#B8D2D2"/>
<path d="M38.4584 16.3994H3.82031V32.9901H38.4584V16.3994Z" fill="#6A8D96"/>
<path d="M39.4745 32.9902H2.8125V35.2353H39.4745V32.9902Z" fill="#194149"/>
<path d="M38.4584 7.44385H3.82031V10.3373H38.4584V7.44385Z" fill="#6A8D96"/>
<path d="M40.7085 7.44379H1.57871C1.51393 7.44379 1.46094 7.3908 1.46094 7.32601V0.117779C1.46094 0.0529906 1.51393 0 1.57871 0H40.7085C40.7733 0 40.8263 0.0529906 40.8263 0.117779V7.32601C40.8263 7.3908 40.7733 7.44379 40.7085 7.44379Z" fill="#2D6E37"/>
<path d="M34.7253 17.9277H25.8945V35.2354H34.7253V17.9277Z" fill="#4E7079"/>
<path d="M34.0968 18.5166H26.4727V35.235H34.0968V18.5166Z" fill="#6A8D96"/>
<path d="M33.5068 19.2969H27.0586V28.056H33.5068V19.2969Z" fill="#070508"/>
<path opacity="0.25" d="M33.507 26.7642V28.0556H32.3867L33.507 26.7642Z" fill="white"/>
<path opacity="0.25" d="M33.5059 20.8989V24.0305L30.0134 28.0561H27.2969L33.5059 20.8989Z" fill="white"/>
<path opacity="0.25" d="M33.5069 19.2969V19.3155L27.0586 26.7482V22.5731L29.9008 19.2969H33.5069Z" fill="white"/>
<path d="M33.5068 29.6021H27.0586V33.7199H33.5068V29.6021Z" fill="#4E7079"/>
<path d="M32.951 30.1396H27.6211V33.1614H32.951V30.1396Z" fill="#6A8D96"/>
<path d="M47.2039 36.6236V37.4928H0V36.6236C0 35.8598 0.624907 35.2349 1.3886 35.2349H45.8152C46.579 35.2349 47.2039 35.8598 47.2039 36.6236Z" fill="#575153"/>
<path d="M39.4745 7.44385H2.8125V8.46937H39.4745V7.44385Z" fill="#B8D2D2"/>
<path d="M11.5568 10.271H15.3906L14.4351 15.4216H9.84375L11.5568 10.271Z" fill="#2D6E37"/>
<path d="M15.3892 10.271H19.2231L19.0249 15.4216H14.4336L15.3892 10.271Z" fill="#F7EDEB"/>
<path d="M23.1041 10.271L23.6111 15.4216H19.0312L19.2295 10.271H23.1041Z" fill="#2D6E37"/>
<path d="M26.8131 10.271L28.1998 15.4216H23.6085L23.1016 10.271H26.8131Z" fill="#F7EDEB"/>
<path d="M30.6871 10.271L32.7905 15.4216H28.1992L26.8125 10.271H30.6871Z" fill="#2D6E37"/>
<path d="M11.5587 10.271L11.2288 11.262L9.84428 15.4215H5.25391L6.66706 12.4757L7.24932 11.262L7.72477 10.271H11.5587Z" fill="#F7EDEB"/>
<path d="M37.3866 15.4215H32.7937L31.0959 11.262L30.6914 10.271H34.5661L35.1089 11.262L37.3866 15.4215Z" fill="#F7EDEB"/>
<path d="M7.72773 10.2715L7.25207 11.2625L6.66955 12.4762L5.25639 15.4207L5.25536 15.4229H0.664062L3.89382 10.2715H7.72773Z" fill="#2D6E37"/>
<path d="M41.9746 15.4215H37.3833L37.3824 15.4198L35.1139 11.2779L35.1053 11.262L34.5625 10.271H38.4371L41.9746 15.4215Z" fill="#2D6E37"/>
<path opacity="0.32" d="M5.25025 15.4226V15.1653H2.8125V15.1653H5.25025L6.66443 12.4009L5.25127 15.1645V15.4204L5.25025 15.4226Z" fill="#57886B"/>
<path opacity="0.32" d="M37.3714 15.42V15.1645L35.103 11.2781L35.0938 11.2622H35.0943L37.3724 15.1645V15.4217L37.3714 15.42Z" fill="#57886B"/>
<path d="M40.8337 6.30225H1.46094V6.72306H40.8337V6.30225Z" fill="#6A8D96"/>
<path d="M37.3277 21.7719H35.5341C35.453 21.7719 35.3867 21.7056 35.3867 21.6245V20.9965C35.3867 20.9154 35.453 20.8491 35.5341 20.8491H37.3277C37.4087 20.8491 37.4751 20.9154 37.4751 20.9965V21.6245C37.475 21.7056 37.4087 21.7719 37.3277 21.7719Z" fill="#B8D2D2"/>
<path d="M38.0386 23.4125H36.245C36.164 23.4125 36.0977 23.3462 36.0977 23.2652V22.6371C36.0977 22.5561 36.164 22.4897 36.245 22.4897H38.0386C38.1197 22.4897 38.186 22.5561 38.186 22.6371V23.2652C38.186 23.3462 38.1197 23.4125 38.0386 23.4125Z" fill="#B8D2D2"/>
<path d="M37.3277 28.0912H35.5341C35.453 28.0912 35.3867 28.0249 35.3867 27.9439V27.3158C35.3867 27.2347 35.453 27.1685 35.5341 27.1685H37.3277C37.4087 27.1685 37.4751 27.2347 37.4751 27.3158V27.9439C37.475 28.0249 37.4087 28.0912 37.3277 28.0912Z" fill="#B8D2D2"/>
<path d="M38.0386 30.705H36.245C36.164 30.705 36.0977 30.6387 36.0977 30.5576V29.9296C36.0977 29.8486 36.164 29.7822 36.245 29.7822H38.0386C38.1197 29.7822 38.186 29.8485 38.186 29.9296V30.5576C38.186 30.6387 38.1197 30.705 38.0386 30.705Z" fill="#B8D2D2"/>
<path d="M38.4299 9.95264H3.82031V10.2709H38.4299V9.95264Z" fill="#4E7079"/>
<path d="M24.499 19.6108H5.82031V31.7039H24.499V19.6108Z" fill="#4E7079"/>
<path d="M23.9259 20.2168H6.36328V31.1475H23.9259V20.2168Z" fill="#070508"/>
<path d="M23.926 20.2295H6.36328V20.8655H23.926V20.2295Z" fill="#070508"/>
<path d="M43.0734 25.7393L44.1397 35.2318H43.6756L43.356 32.3871H39.9334L40.253 35.2318H39.7889L38.7227 25.7393H43.0734Z" fill="#5C311F"/>
<path d="M43.2965 31.8715H39.8738L39.2422 26.2485H42.6649L43.2965 31.8715Z" fill="#040404"/>
<path d="M38.3709 25.7393L37.3047 35.2318H37.7688L38.0883 32.3871H41.5109L41.1914 35.2318H41.6554L42.7217 25.7393H38.3709Z" fill="#6D4931"/>
<path d="M38.1484 31.8715H41.5711L42.2027 26.2485H38.78L38.1484 31.8715Z" fill="#040404"/>
<path d="M49.887 13.3753H42.0905C42.0278 13.3753 41.9766 13.324 41.9766 13.2613V5.46501C41.9766 5.40234 42.0278 5.35107 42.0905 5.35107H49.887C49.9497 5.35107 50.001 5.40234 50.001 5.46501V13.2613C50.001 13.324 49.9497 13.3753 49.887 13.3753Z" fill="#307580"/>
<path d="M49.4157 12.9324H42.5666C42.4868 12.9324 42.4219 12.8674 42.4219 12.7876V5.93867C42.4219 5.85887 42.4868 5.79395 42.5666 5.79395H49.4157C49.4955 5.79395 49.5605 5.85887 49.5605 5.93867V12.7876C49.5605 12.8674 49.4955 12.9324 49.4157 12.9324ZM42.5666 5.88319C42.536 5.88319 42.5111 5.90809 42.5111 5.93867V12.7876C42.5111 12.8182 42.536 12.8431 42.5666 12.8431H49.4157C49.4463 12.8431 49.4712 12.8182 49.4712 12.7876V5.93867C49.4712 5.90806 49.4463 5.88319 49.4157 5.88319H42.5666Z" fill="white"/>
<path d="M41.9736 7.71143H39.4766V8.46493H41.9736V7.71143Z" fill="#C5915A"/>
<path d="M41.9697 8.08838H39.4727V8.47016H41.9697V8.08838Z" fill="#A46F3F"/>
<path d="M41.9736 10.5H39.4766V11.2535H41.9736V10.5Z" fill="#C5915A"/>
<path d="M41.9658 10.8765H39.4688V11.2583H41.9658V10.8765Z" fill="#A46F3F"/>
<path d="M33.9021 26.5814H26.6674C26.5603 26.5814 26.4727 26.4937 26.4727 26.3866V26.0902C26.4727 25.9831 26.5603 25.8955 26.6674 25.8955H33.9021C34.0092 25.8955 34.0969 25.9831 34.0969 26.0902V26.3866C34.0969 26.4938 34.0092 26.5814 33.9021 26.5814Z" fill="#B9CEE9"/>
<path d="M41.9689 15.4224H0.65625V17.9274H41.9689V15.4224Z" fill="#307580"/>
<path d="M5.25 15.4222V17.9272H9.84137L9.8414 15.4214L5.25 15.4222Z" fill="#E2D7BB"/>
<path d="M19.017 15.4214H14.4258V17.9272H19.017V15.4214Z" fill="#E2D7BB"/>
<path d="M28.2006 15.4214H23.6094V17.9272H28.2006V15.4214Z" fill="#E2D7BB"/>
<path d="M32.7852 15.4215V17.9273H37.378V15.4199L32.7852 15.4215Z" fill="#E2D7BB"/>
<path d="M23.926 22.4897H6.36328V23.0223H23.926V22.4897Z" fill="#B9CEE9"/>
<path d="M9.05334 24.0493C9.00446 24.0493 8.96484 24.0097 8.96484 23.9608V22.7063C8.96885 22.582 9.05758 22.4014 9.28592 22.4014C9.3348 22.4014 9.37441 22.441 9.37441 22.4899C9.37441 22.5387 9.3348 22.5784 9.28592 22.5784C9.16061 22.5784 9.14389 22.6762 9.1418 22.7087V23.9608C9.14183 24.0097 9.10222 24.0493 9.05334 24.0493Z" fill="white"/>
<path d="M9.55992 24.7958C9.5434 24.7415 9.52801 24.6869 9.51398 24.6318C9.44122 24.3463 9.40589 24.053 9.3349 23.7671C9.30843 23.6604 9.29823 23.5317 9.18884 23.4807C9.08635 23.4328 8.95903 23.4671 8.88747 23.5545C8.80072 23.6605 8.78436 23.8051 8.75987 23.9398C8.58093 24.9245 7.82234 25.6928 7.41643 26.6076C7.26441 26.9502 7.16189 27.3403 7.27396 27.698C7.37819 28.0307 7.65842 28.2873 7.97576 28.4316C8.29311 28.5759 8.6463 28.6208 8.99443 28.6397C9.38102 28.6607 9.80855 28.6371 10.0913 28.3727C10.2903 28.1867 10.3813 27.9098 10.4077 27.6387C10.4589 27.1134 10.2962 26.5907 10.0934 26.1035C9.9124 25.6686 9.69686 25.2453 9.55992 24.7958Z" fill="#D96757"/>
<path d="M9.79295 28.4409C9.82096 28.4272 9.84826 28.412 9.87474 28.3952C10.044 28.2878 10.1744 28.1058 10.182 27.9054C10.1937 27.5983 9.93662 27.4388 9.70609 27.2998C9.40041 27.1154 9.09757 26.9264 8.79152 26.7427C8.59927 26.6273 8.40039 26.5119 8.17951 26.4733C7.95863 26.4348 7.70802 26.4881 7.5665 26.662C7.45023 26.8049 7.42618 27.0005 7.42249 27.1847C7.41876 27.3697 7.43118 27.5569 7.48413 27.7342C7.53708 27.9116 7.6329 28.0794 7.77555 28.1973C7.93865 28.3322 8.14937 28.3929 8.35527 28.442C8.66536 28.5159 8.98325 28.5714 9.30159 28.5545C9.47051 28.5456 9.64185 28.5148 9.79295 28.4409Z" fill="#F3E2DD"/>
<path d="M9.56544 28.4543C9.63026 28.4374 9.69296 28.4136 9.75187 28.3814C9.90372 28.2982 10.0271 28.1532 10.0574 27.9827C10.1289 27.58 9.66734 27.4242 9.39779 27.2536C9.05208 27.0348 8.71291 26.7977 8.32992 26.6471C8.17469 26.5861 7.99219 26.5419 7.84701 26.6241C7.6497 26.7359 7.59877 27.0237 7.56986 27.2286C7.53548 27.4722 7.55241 27.7365 7.69527 27.9452C7.80596 28.1069 7.97998 28.2166 8.16353 28.2853C8.34709 28.3541 8.54204 28.3856 8.73498 28.4201C8.90543 28.4506 9.07637 28.4837 9.24946 28.4877C9.35547 28.49 9.46309 28.4808 9.56544 28.4543Z" fill="#E8675F"/>
<path d="M8.96041 27.735C8.99073 27.6297 8.89567 27.5098 8.7481 27.4674C8.60053 27.4249 8.45633 27.4759 8.426 27.5812C8.39568 27.6866 8.49072 27.8064 8.63829 27.8489C8.78586 27.8913 8.93008 27.8404 8.96041 27.735Z" fill="#F3E2DD"/>
<path d="M12.4518 24.0493C12.4029 24.0493 12.3633 24.0097 12.3633 23.9608V22.7063C12.3673 22.582 12.456 22.4014 12.6844 22.4014C12.7332 22.4014 12.7729 22.441 12.7729 22.4899C12.7729 22.5387 12.7332 22.5784 12.6844 22.5784C12.5591 22.5784 12.5423 22.6762 12.5403 22.7087V23.9608C12.5403 24.0097 12.5007 24.0493 12.4518 24.0493Z" fill="white"/>
<path d="M12.8575 23.8224V26.872C12.8551 26.8814 12.8514 26.8901 12.8462 26.8982C12.7865 26.9915 12.561 26.9537 12.3427 26.814C12.1747 26.7065 12.0599 26.5699 12.043 26.4701V23.8223C12.043 23.6665 12.1423 23.5328 12.2807 23.4815C12.3199 23.4669 12.3623 23.459 12.4063 23.459H12.4941C12.5382 23.459 12.5805 23.4669 12.6197 23.4815C12.7582 23.5329 12.8575 23.6665 12.8575 23.8224Z" fill="#E5605B"/>
<path d="M12.8558 26.8722C12.8533 26.8815 12.8496 26.8903 12.8445 26.8983C12.7847 26.9916 12.5593 26.9539 12.3409 26.8141C12.173 26.7066 12.0581 26.57 12.0412 26.4702C12.0384 26.4534 12.0383 26.4377 12.0412 26.4233C12.0435 26.412 12.0476 26.4015 12.0537 26.392C12.1134 26.2988 12.3389 26.3364 12.5572 26.4762C12.7218 26.5815 12.8353 26.7147 12.8558 26.8139C12.8601 26.8351 12.8603 26.8547 12.8558 26.8722Z" fill="#F28889"/>
<path d="M12.241 26.513C12.2406 26.5146 12.24 26.516 12.2392 26.5174C12.2292 26.5328 12.1918 26.5266 12.1556 26.5034C12.1277 26.4855 12.1086 26.4629 12.1058 26.4463C12.1053 26.4435 12.1053 26.4409 12.1058 26.4385C12.1062 26.4366 12.1069 26.4349 12.1079 26.4333C12.1178 26.4178 12.1552 26.4241 12.1915 26.4473C12.2188 26.4648 12.2376 26.4869 12.241 26.5033C12.2417 26.5069 12.2418 26.5101 12.241 26.513Z" fill="#F4D1C2"/>
<path d="M12.3582 26.6937C12.3578 26.6952 12.3572 26.6967 12.3563 26.698C12.3464 26.7135 12.309 26.7073 12.2728 26.684C12.2449 26.6662 12.2258 26.6435 12.223 26.6269C12.2225 26.6241 12.2225 26.6215 12.223 26.6191C12.2234 26.6173 12.2241 26.6155 12.2251 26.614C12.235 26.5985 12.2724 26.6047 12.3087 26.628C12.336 26.6454 12.3548 26.6675 12.3582 26.684C12.359 26.6875 12.359 26.6908 12.3582 26.6937Z" fill="#F4D1C2"/>
<path d="M12.495 26.5721C12.4945 26.5737 12.4939 26.5751 12.4931 26.5764C12.4831 26.5919 12.4457 26.5857 12.4095 26.5625C12.3816 26.5446 12.3626 26.522 12.3597 26.5054C12.3593 26.5026 12.3593 26.5 12.3597 26.4976C12.3601 26.4957 12.3608 26.494 12.3618 26.4924C12.3717 26.4769 12.4091 26.4831 12.4454 26.5064C12.4727 26.5238 12.4916 26.5459 12.495 26.5624C12.4957 26.566 12.4957 26.5692 12.495 26.5721Z" fill="#F4D1C2"/>
<path d="M12.5887 26.7435C12.5883 26.7451 12.5877 26.7465 12.5868 26.7479C12.5769 26.7633 12.5395 26.7571 12.5032 26.7339C12.4754 26.716 12.4563 26.6933 12.4535 26.6768C12.453 26.674 12.453 26.6714 12.4535 26.669C12.4539 26.6671 12.4546 26.6654 12.4555 26.6638C12.4655 26.6483 12.5029 26.6545 12.5391 26.6778C12.5664 26.6953 12.5853 26.7173 12.5887 26.7338C12.5894 26.7374 12.5895 26.7406 12.5887 26.7435Z" fill="#F4D1C2"/>
<path d="M12.784 26.7708C12.7836 26.7724 12.783 26.7738 12.7821 26.7751C12.7722 26.7906 12.7348 26.7844 12.6985 26.7612C12.6707 26.7433 12.6516 26.7207 12.6488 26.7041C12.6483 26.7013 12.6483 26.6987 12.6488 26.6963C12.6492 26.6944 12.6499 26.6927 12.6509 26.6911C12.6608 26.6756 12.6982 26.6819 12.7344 26.7051C12.7618 26.7226 12.7806 26.7447 12.784 26.7611C12.7847 26.7647 12.7848 26.7679 12.784 26.7708Z" fill="#F4D1C2"/>
<path d="M12.6942 26.9007C12.6938 26.9023 12.6931 26.9037 12.6923 26.905C12.6824 26.9205 12.6449 26.9143 12.6087 26.8911C12.5808 26.8732 12.5618 26.8506 12.559 26.834C12.5585 26.8312 12.5585 26.8286 12.559 26.8262C12.5593 26.8243 12.56 26.8226 12.561 26.821C12.5709 26.8055 12.6084 26.8118 12.6446 26.835C12.6719 26.8525 12.6908 26.8746 12.6942 26.891C12.6949 26.8945 12.6949 26.8978 12.6942 26.9007Z" fill="#F4D1C2"/>
<path d="M15.1744 24.0493C15.1255 24.0493 15.0859 24.0097 15.0859 23.9608V22.7063C15.0899 22.582 15.1787 22.4014 15.407 22.4014C15.4559 22.4014 15.4955 22.441 15.4955 22.4899C15.4955 22.5387 15.4559 22.5784 15.407 22.5784C15.2817 22.5784 15.265 22.6762 15.2629 22.7087V23.9608C15.2629 24.0097 15.2233 24.0493 15.1744 24.0493Z" fill="white"/>
<path d="M15.7868 23.5325V28.7296C15.7868 28.77 15.7667 28.8031 15.7421 28.8031H14.611C14.5865 28.8031 14.5664 28.77 14.5664 28.7296V23.5325C14.5664 23.4921 14.5865 23.459 14.611 23.459H15.7421C15.7667 23.459 15.7868 23.4921 15.7868 23.5325Z" fill="#EFAA87"/>
<path d="M15.7885 23.5325V28.7296C15.7885 28.77 15.7684 28.8031 15.7439 28.8031H14.7305V23.459H15.7439C15.7684 23.459 15.7885 23.4921 15.7885 23.5325Z" fill="#F5E1DD"/>
<path d="M15.4101 28.8031H15.2106L15.095 27.6692C15.0744 28.0141 15.0538 28.4393 15.037 28.8031H14.8694C14.9108 27.8682 14.9609 26.2858 14.8986 25.0467C14.8558 24.1952 14.8383 23.7219 14.832 23.459H14.9795L15.0441 24.3402L15.0775 23.459H15.2477C15.1743 24.4418 15.0544 26.2519 15.1168 26.8429C15.1727 27.3716 15.3149 28.2437 15.4101 28.8031Z" fill="#DE9AA0"/>
<path d="M15.2345 24.4761C15.2345 24.4761 15.1345 26.0168 15.1797 26.5437C15.2248 27.0706 15.2609 27.4538 15.2609 27.4538L15.2345 24.4761Z" fill="#DE9AA0"/>
<path d="M15.7825 23.5325V28.7296C15.7825 28.77 15.7624 28.8031 15.7378 28.8031H15.4953C15.4783 27.888 15.4463 26.3793 15.4089 25.6334C15.3692 24.8423 15.4031 23.9244 15.426 23.459H15.7378C15.7624 23.459 15.7825 23.4921 15.7825 23.5325Z" fill="#E96762"/>
<path d="M18.1276 24.0493C18.0787 24.0493 18.0391 24.0097 18.0391 23.9608V22.7063C18.0431 22.582 18.1318 22.4014 18.3601 22.4014C18.409 22.4014 18.4486 22.441 18.4486 22.4899C18.4486 22.5387 18.409 22.5784 18.3601 22.5784C18.2348 22.5784 18.2181 22.6763 18.2161 22.7087V23.9608C18.2161 24.0097 18.1764 24.0493 18.1276 24.0493Z" fill="white"/>
<path d="M17.9815 23.4655C17.9815 23.4655 17.7775 23.4399 17.8285 23.78C17.8795 24.1199 17.7435 24.579 17.6415 24.6895C17.5395 24.8 17.2165 24.919 17.0805 25.344C16.9444 25.769 17.0465 26.364 17.0805 26.5256C17.1145 26.6871 17.6925 27.4351 18.0325 27.4181C18.3725 27.4011 18.6615 27.0781 18.7465 26.9081C18.8315 26.7381 19.384 25.9475 19.3586 25.5565C19.333 25.1655 18.9675 24.698 18.721 24.426C18.4746 24.154 18.5426 23.3805 17.9815 23.4655Z" fill="#F4DFE4"/>
<path d="M18.2748 26.1602C18.2748 26.1602 18.3853 26.3303 18.5808 26.4323C18.7763 26.5343 18.8869 26.2877 18.9973 26.0327C19.1078 25.7777 18.9633 25.3272 18.8103 25.2592C18.6573 25.1912 17.9688 25.2167 17.7223 25.3697C17.4758 25.5227 17.3143 25.6502 17.3483 25.9988C17.3823 26.3473 17.5013 26.6023 17.6033 26.5597C17.6033 26.5597 17.7308 26.3387 17.8328 26.2367C17.9348 26.1347 18.1474 26.0242 18.1814 25.7522C18.2153 25.4802 18.3173 25.4972 18.3173 25.4972C18.3173 25.4972 18.1303 25.9137 18.2748 26.1602Z" fill="#E76861"/>
<path d="M17.6658 26.5642C17.6658 26.5642 17.9265 26.3046 18.0002 26.2365C18.0739 26.1685 18.1929 26.1685 18.2268 26.2365C18.2608 26.3046 18.5782 26.4916 18.6349 26.5313C18.6915 26.5709 18.5215 26.9053 18.3968 26.9733C18.2722 27.0413 18.1928 27.1716 18.0568 27.1319C17.9208 27.0922 17.7225 26.8826 17.6658 26.7806C17.6091 26.6786 17.6658 26.5642 17.6658 26.5642Z" fill="#E76861"/>
<path d="M18.6278 25.084C18.6112 25.1161 18.57 25.1256 18.5339 25.1283C18.3296 25.1436 18.1197 25.0868 18.1482 24.8483C18.1566 24.7779 18.1774 24.7094 18.1843 24.639C18.2052 24.4249 18.0974 24.2133 18.1204 23.9995C18.1217 23.9876 18.124 23.9747 18.1332 23.9671C18.1518 23.9517 18.179 23.9705 18.1938 23.9896C18.315 24.1468 18.2881 24.3795 18.3996 24.5439C18.451 24.6197 18.5287 24.6756 18.5751 24.7546C18.623 24.8362 18.6329 24.9342 18.6357 25.0288C18.6362 25.0474 18.6364 25.0667 18.6281 25.0834C18.628 25.0836 18.6279 25.0838 18.6278 25.084Z" fill="#E76861"/>
<path d="M17.8811 24.7332C17.8123 24.7936 17.7473 24.8582 17.6865 24.9266C17.6298 24.9903 17.4397 25.368 17.6545 25.2269C17.7212 25.1831 17.7842 25.1338 17.8519 25.0916C17.9124 25.0539 18.0061 25.0347 18.0562 24.9858C18.0781 24.9645 18.086 24.9329 18.0901 24.9027C18.0983 24.842 18.095 24.7797 18.0804 24.7201C18.0717 24.6847 18.0511 24.644 18.0147 24.6426C17.9931 24.6418 17.974 24.6558 17.9572 24.6693C17.9314 24.69 17.906 24.7113 17.8811 24.7332Z" fill="#E76861"/>
<path d="M21.7135 24.0493C21.6646 24.0493 21.625 24.0097 21.625 23.9608V22.7063C21.629 22.582 21.7178 22.4014 21.9461 22.4014C21.995 22.4014 22.0346 22.441 22.0346 22.4899C22.0346 22.5387 21.995 22.5784 21.9461 22.5784C21.8208 22.5784 21.804 22.6763 21.802 22.7087V23.9608C21.802 24.0097 21.7624 24.0493 21.7135 24.0493Z" fill="white"/>
<path d="M22.3298 23.5325V28.7296C22.3298 28.77 22.3097 28.8031 22.2851 28.8031H21.154C21.1295 28.8031 21.1094 28.77 21.1094 28.7296V23.5325C21.1094 23.4921 21.1295 23.459 21.154 23.459H22.2851C22.3097 23.459 22.3298 23.4921 22.3298 23.5325Z" fill="#EFAA87"/>
<path d="M22.3315 23.5325V28.7296C22.3315 28.77 22.3114 28.8031 22.2868 28.8031H21.2734V23.459H22.2868C22.3114 23.459 22.3315 23.4921 22.3315 23.5325Z" fill="#F5E1DD"/>
<path d="M21.9531 28.8031H21.7535L21.638 27.6692C21.6173 28.0141 21.5967 28.4393 21.5799 28.8031H21.4124C21.4538 27.8682 21.5039 26.2858 21.4416 25.0467C21.3987 24.1952 21.3813 23.7219 21.375 23.459H21.5224L21.587 24.3402L21.6205 23.459H21.7906C21.7173 24.4418 21.5973 26.2519 21.6598 26.8429C21.7156 27.3716 21.8579 28.2437 21.9531 28.8031Z" fill="#DE9AA0"/>
<path d="M21.7775 24.4761C21.7775 24.4761 21.6775 26.0168 21.7227 26.5437C21.7678 27.0706 21.8038 27.4538 21.8038 27.4538L21.7775 24.4761Z" fill="#DE9AA0"/>
<path d="M22.3255 23.5325V28.7296C22.3255 28.77 22.3054 28.8031 22.2808 28.8031H22.0382C22.0212 27.888 21.9893 26.3793 21.9519 25.6334C21.9122 24.8423 21.9461 23.9244 21.969 23.459H22.2808C22.3054 23.459 22.3255 23.4921 22.3255 23.5325Z" fill="#E96762"/>
<path opacity="0.25" d="M22.7464 20.2168L13.2634 31.1475H7.60547L17.0885 20.2168H22.7464Z" fill="white"/>
<path opacity="0.25" d="M23.9279 23.7065V26.7166L20.0839 31.1473H17.4727L23.9279 23.7065Z" fill="white"/>
<path opacity="0.25" d="M13.7518 20.2168L6.36328 28.7332V24.7198L10.27 20.2168H13.7518Z" fill="white"/>
<path d="M48.5302 10.826C48.517 11.0299 48.471 11.2362 48.316 11.3608C48.1157 11.5219 47.8262 11.4749 47.5724 11.4332C46.9641 11.3333 46.3384 11.3136 45.7323 11.4258C45.4909 11.4705 45.2531 11.5359 45.0092 11.564C44.2896 11.6471 43.6154 11.2129 43.2725 10.5922C43.0507 10.1908 42.9728 9.7118 43.0559 9.26078C43.0593 9.24221 43.0636 9.22251 43.077 9.20913C43.1199 9.16624 43.1858 9.22839 43.2135 9.28234C43.3522 9.55145 43.5048 9.81631 43.7063 10.0421C43.9079 10.268 44.1626 10.4543 44.4545 10.5345C45.1476 10.7248 45.8948 10.2946 46.5921 10.4691C47.0023 10.5717 47.3727 10.8791 47.7932 10.835C47.9827 10.8151 48.1568 10.724 48.3214 10.628C48.3879 10.5892 48.4917 10.559 48.5256 10.6281C48.5351 10.6474 48.5352 10.6699 48.5349 10.6915C48.5344 10.7356 48.5331 10.7808 48.5302 10.826Z" fill="#EFAA87"/>
<path d="M45.1424 11.504C44.8478 11.504 44.5557 11.4324 44.2876 11.2912C43.8528 11.0624 43.5333 10.6778 43.3877 10.2085C43.338 10.0483 43.3103 9.88269 43.3054 9.71603C43.3049 9.71237 43.3047 9.70861 43.3047 9.70485V8.62377C43.3045 7.81324 43.825 7.10713 44.5997 6.86679C45.2125 6.67691 45.8674 6.81494 46.3521 7.23596L48.5839 9.02006C48.7315 9.11259 48.8411 9.25499 48.8928 9.42165C48.9198 9.50874 48.9302 9.59805 48.924 9.68764C48.9251 9.69321 48.9256 9.69897 48.9256 9.70482V10.639C48.9256 10.6424 48.9255 10.6457 48.9251 10.6491C48.9383 10.9789 48.7295 11.2755 48.4125 11.3738C48.29 11.4118 48.1592 11.4169 48.0344 11.3883C48.024 11.3859 48.0135 11.3833 48.003 11.3804C47.7981 11.3306 46.7135 11.0941 45.7509 11.4004C45.7319 11.407 45.7106 11.414 45.6893 11.4206C45.5095 11.4763 45.3255 11.504 45.1424 11.504ZM43.4817 9.69606C43.4819 9.69824 43.4821 9.7005 43.4822 9.70276C43.4859 9.85608 43.511 10.0086 43.5568 10.1561C43.6883 10.5802 43.9772 10.9277 44.3701 11.1346C44.7629 11.3414 45.2129 11.3829 45.6371 11.2514C45.6567 11.2454 45.6762 11.2389 45.6954 11.2323C46.7049 10.911 47.8319 11.1566 48.0476 11.2091C48.0582 11.2119 48.0659 11.2139 48.0738 11.2156C48.1689 11.2375 48.2673 11.2335 48.3601 11.2047C48.6039 11.129 48.7633 10.8986 48.7477 10.6442C48.7472 10.6375 48.7476 10.6307 48.7487 10.6242V9.72845C48.7456 9.71774 48.7445 9.70635 48.7457 9.69469C48.7536 9.62053 48.7462 9.5463 48.7237 9.47399C48.6842 9.34643 48.5999 9.23768 48.4863 9.16769C48.4833 9.16581 48.4803 9.16376 48.4775 9.16147L46.2402 7.37295C46.2393 7.3722 46.2383 7.37142 46.2374 7.3706C45.7991 6.98915 45.2065 6.86399 44.6522 7.03574C43.952 7.25299 43.4816 7.89112 43.4817 8.62366V9.69606Z" fill="white"/>
<path d="M48.5116 9.62659C48.4803 9.52568 48.4209 9.44129 48.3447 9.3792C48.3427 9.37766 48.3408 9.37609 48.3389 9.37458L46.0832 7.55898C46.0748 7.5521 46.0664 7.5453 46.0578 7.53863C45.7048 7.26121 45.2259 7.15609 44.7647 7.29915C44.0191 7.53038 43.6021 8.32224 43.8333 9.06781C44.0275 9.69404 44.6173 10.0883 45.2429 10.0616C45.243 10.0624 45.2432 10.063 45.2436 10.063C45.2465 10.063 45.2569 10.0619 45.2735 10.0599C45.3335 10.056 45.3936 10.0483 45.4538 10.0365C45.7328 9.99931 46.2248 9.93236 46.5314 9.89829C46.9704 9.84951 47.7722 10.2346 47.7722 10.2346C47.8902 10.2983 48.0327 10.3164 48.171 10.2735C48.4436 10.1889 48.5962 9.89932 48.5116 9.62659Z" fill="#F15955"/>
<path d="M45.1882 9.01642C45.3913 9.01642 45.556 8.85173 45.556 8.64859C45.556 8.44544 45.3913 8.28076 45.1882 8.28076C44.985 8.28076 44.8203 8.44544 44.8203 8.64859C44.8203 8.85173 44.985 9.01642 45.1882 9.01642Z" fill="white"/>
<path d="M5.82191 1.74843L4.37109 3.19922L5.82191 4.65L7.27272 3.19922L5.82191 1.74843Z" fill="white"/>
<path d="M36.5289 1.74892L35.0781 3.19971L36.5289 4.65049L37.9798 3.19971L36.5289 1.74892Z" fill="white"/>
</svg>
